<svg xmlns="http://www.w3.org/2000/svg" xmlns:xlink="http://www.w3.org/1999/xlink" contentStyleType="text/css" height="1607px" preserveAspectRatio="none" style="width:575px;height:1607px;background:#FFFFFF;" version="1.1" viewBox="0 0 575 1607" width="575px" zoomAndPan="magnify"><defs/><g><text fill="#000000" font-family="sans-serif" font-size="14" font-weight="bold" lengthAdjust="spacing" textLength="462" x="49.75" y="22.9951">Coarse-grained Cleaner Execution Order Recommendation</text><!--class SINGLE_END--><g id="elem_SINGLE_END"><rect codeLine="16" fill="#F1F1F1" height="32" id="SINGLE_END" rx="2.5" ry="2.5" style="stroke:#181818;stroke-width:0.5;" width="118" x="236" y="193.8869"/><ellipse cx="251" cy="209.8869" fill="#DA70D6" rx="11" ry="11" style="stroke:#181818;stroke-width:1.0;"/><path d="M251.1094,205.465 Q250.1719,205.465 249.7344,206.465 Q249.3125,207.465 249.3125,209.6994 Q249.3125,211.9337 249.7344,212.9337 Q250.1719,213.9337 251.1094,213.9337 Q252.0625,213.9337 252.4844,212.9337 Q252.9219,211.9337 252.9219,209.6994 Q252.9219,207.465 252.4844,206.465 Q252.0625,205.465 251.1094,205.465 Z M246.7656,209.6994 Q246.7656,206.5275 247.8594,204.9025 Q248.9688,203.2619 251.1094,203.2619 Q253.2656,203.2619 254.3594,204.9025 Q255.4688,206.5275 255.4688,209.6994 Q255.4688,212.8712 254.3594,214.4962 Q253.2656,216.1212 251.1094,216.1212 Q248.9688,216.1212 247.8594,214.4962 Q246.7656,212.8712 246.7656,209.6994 Z " fill="#000000"/><text fill="#000000" font-family="sans-serif" font-size="14" lengthAdjust="spacing" textLength="86" x="265" y="214.7336">SINGLE_END</text></g><!--class level_1_end--><g id="elem_level_1_end"><rect codeLine="18" fill="#F1F1F1" height="32" id="level_1_end" rx="2.5" ry="2.5" style="stroke:#181818;stroke-width:0.5;" width="113" x="238.5" y="901.2669"/><ellipse cx="253.5" cy="917.2669" fill="#DA70D6" rx="11" ry="11" style="stroke:#181818;stroke-width:1.0;"/><path d="M253.6094,912.845 Q252.6719,912.845 252.2344,913.845 Q251.8125,914.845 251.8125,917.0794 Q251.8125,919.3138 252.2344,920.3138 Q252.6719,921.3138 253.6094,921.3138 Q254.5625,921.3138 254.9844,920.3138 Q255.4219,919.3138 255.4219,917.0794 Q255.4219,914.845 254.9844,913.845 Q254.5625,912.845 253.6094,912.845 Z M249.2656,917.0794 Q249.2656,913.9075 250.3594,912.2825 Q251.4688,910.6419 253.6094,910.6419 Q255.7656,910.6419 256.8594,912.2825 Q257.9688,913.9075 257.9688,917.0794 Q257.9688,920.2513 256.8594,921.8763 Q255.7656,923.5013 253.6094,923.5013 Q251.4688,923.5013 250.3594,921.8763 Q249.2656,920.2513 249.2656,917.0794 Z " fill="#000000"/><text fill="#000000" font-family="sans-serif" font-size="14" lengthAdjust="spacing" textLength="81" x="267.5" y="922.1136">level_1_end</text></g><!--class level_2_end--><g id="elem_level_2_end"><rect codeLine="20" fill="#F1F1F1" height="32" id="level_2_end" rx="2.5" ry="2.5" style="stroke:#181818;stroke-width:0.5;" width="113" x="238.5" y="1159.8569"/><ellipse cx="253.5" cy="1175.8569" fill="#DA70D6" rx="11" ry="11" style="stroke:#181818;stroke-width:1.0;"/><path d="M253.6094,1171.435 Q252.6719,1171.435 252.2344,1172.435 Q251.8125,1173.435 251.8125,1175.6694 Q251.8125,1177.9038 252.2344,1178.9038 Q252.6719,1179.9038 253.6094,1179.9038 Q254.5625,1179.9038 254.9844,1178.9038 Q255.4219,1177.9038 255.4219,1175.6694 Q255.4219,1173.435 254.9844,1172.435 Q254.5625,1171.435 253.6094,1171.435 Z M249.2656,1175.6694 Q249.2656,1172.4975 250.3594,1170.8725 Q251.4688,1169.2319 253.6094,1169.2319 Q255.7656,1169.2319 256.8594,1170.8725 Q257.9688,1172.4975 257.9688,1175.6694 Q257.9688,1178.8413 256.8594,1180.4663 Q255.7656,1182.0913 253.6094,1182.0913 Q251.4688,1182.0913 250.3594,1180.4663 Q249.2656,1178.8413 249.2656,1175.6694 Z " fill="#000000"/><text fill="#000000" font-family="sans-serif" font-size="14" lengthAdjust="spacing" textLength="81" x="267.5" y="1180.7036">level_2_end</text></g><!--class level_3_end--><g id="elem_level_3_end"><rect codeLine="22" fill="#F1F1F1" height="32" id="level_3_end" rx="2.5" ry="2.5" style="stroke:#181818;stroke-width:0.5;" width="113" x="238.5" y="1568.0469"/><ellipse cx="253.5" cy="1584.0469" fill="#DA70D6" rx="11" ry="11" style="stroke:#181818;stroke-width:1.0;"/><path d="M253.6094,1579.625 Q252.6719,1579.625 252.2344,1580.625 Q251.8125,1581.625 251.8125,1583.8594 Q251.8125,1586.0938 252.2344,1587.0938 Q252.6719,1588.0938 253.6094,1588.0938 Q254.5625,1588.0938 254.9844,1587.0938 Q255.4219,1586.0938 255.4219,1583.8594 Q255.4219,1581.625 254.9844,1580.625 Q254.5625,1579.625 253.6094,1579.625 Z M249.2656,1583.8594 Q249.2656,1580.6875 250.3594,1579.0625 Q251.4688,1577.4219 253.6094,1577.4219 Q255.7656,1577.4219 256.8594,1579.0625 Q257.9688,1580.6875 257.9688,1583.8594 Q257.9688,1587.0313 256.8594,1588.6563 Q255.7656,1590.2813 253.6094,1590.2813 Q251.4688,1590.2813 250.3594,1588.6563 Q249.2656,1587.0313 249.2656,1583.8594 Z " fill="#000000"/><text fill="#000000" font-family="sans-serif" font-size="14" lengthAdjust="spacing" textLength="81" x="267.5" y="1588.8936">level_3_end</text></g><!--class ZipToAreacodeFD--><g id="elem_ZipToAreacodeFD"><rect codeLine="24" fill="#F1F1F1" height="72.5938" id="ZipToAreacodeFD" rx="2.5" ry="2.5" style="stroke:#181818;stroke-width:0.5;" width="157" x="216.5" y="302.8869"/><ellipse cx="231.5" cy="318.8869" fill="#DA70D6" rx="11" ry="11" style="stroke:#181818;stroke-width:1.0;"/><path d="M231.6094,314.465 Q230.6719,314.465 230.2344,315.465 Q229.8125,316.465 229.8125,318.6994 Q229.8125,320.9337 230.2344,321.9337 Q230.6719,322.9337 231.6094,322.9337 Q232.5625,322.9337 232.9844,321.9337 Q233.4219,320.9337 233.4219,318.6994 Q233.4219,316.465 232.9844,315.465 Q232.5625,314.465 231.6094,314.465 Z M227.2656,318.6994 Q227.2656,315.5275 228.3594,313.9025 Q229.4688,312.2619 231.6094,312.2619 Q233.7656,312.2619 234.8594,313.9025 Q235.9688,315.5275 235.9688,318.6994 Q235.9688,321.8712 234.8594,323.4962 Q233.7656,325.1212 231.6094,325.1212 Q229.4688,325.1212 228.3594,323.4962 Q227.2656,321.8712 227.2656,318.6994 Z " fill="#000000"/><text fill="#000000" font-family="sans-serif" font-size="14" lengthAdjust="spacing" textLength="125" x="245.5" y="323.7336">ZipToAreacodeFD</text><line style="stroke:#181818;stroke-width:0.5;" x1="217.5" x2="372.5" y1="334.8869" y2="334.8869"/><text fill="#000000" font-family="sans-serif" font-size="14" lengthAdjust="spacing" textLength="80" x="222.5" y="351.882">source=zip</text><text fill="#000000" font-family="sans-serif" font-size="14" lengthAdjust="spacing" textLength="118" x="222.5" y="368.1789">target=areacode</text></g><!--class StateToZipFD--><g id="elem_StateToZipFD"><rect codeLine="27" fill="#F1F1F1" height="72.5938" id="StateToZipFD" rx="2.5" ry="2.5" style="stroke:#181818;stroke-width:0.5;" width="127" x="231.5" y="452.4869"/><ellipse cx="246.5" cy="468.4869" fill="#DA70D6" rx="11" ry="11" style="stroke:#181818;stroke-width:1.0;"/><path d="M246.6094,464.065 Q245.6719,464.065 245.2344,465.065 Q244.8125,466.065 244.8125,468.2994 Q244.8125,470.5338 245.2344,471.5338 Q245.6719,472.5338 246.6094,472.5338 Q247.5625,472.5338 247.9844,471.5338 Q248.4219,470.5338 248.4219,468.2994 Q248.4219,466.065 247.9844,465.065 Q247.5625,464.065 246.6094,464.065 Z M242.2656,468.2994 Q242.2656,465.1275 243.3594,463.5025 Q244.4688,461.8619 246.6094,461.8619 Q248.7656,461.8619 249.8594,463.5025 Q250.9688,465.1275 250.9688,468.2994 Q250.9688,471.4713 249.8594,473.0963 Q248.7656,474.7213 246.6094,474.7213 Q244.4688,474.7213 243.3594,473.0963 Q242.2656,471.4713 242.2656,468.2994 Z " fill="#000000"/><text fill="#000000" font-family="sans-serif" font-size="14" lengthAdjust="spacing" textLength="95" x="260.5" y="473.3336">StateToZipFD</text><line style="stroke:#181818;stroke-width:0.5;" x1="232.5" x2="357.5" y1="484.4869" y2="484.4869"/><text fill="#000000" font-family="sans-serif" font-size="14" lengthAdjust="spacing" textLength="95" x="237.5" y="501.482">source=state</text><text fill="#000000" font-family="sans-serif" font-size="14" lengthAdjust="spacing" textLength="73" x="237.5" y="517.7789">target=zip</text></g><!--class ZipToStateFD--><g id="elem_ZipToStateFD"><rect codeLine="30" fill="#F1F1F1" height="72.5938" id="ZipToStateFD" rx="2.5" ry="2.5" style="stroke:#181818;stroke-width:0.5;" width="127" x="231.5" y="602.0769"/><ellipse cx="246.5" cy="618.0769" fill="#DA70D6" rx="11" ry="11" style="stroke:#181818;stroke-width:1.0;"/><path d="M246.6094,613.655 Q245.6719,613.655 245.2344,614.655 Q244.8125,615.655 244.8125,617.8894 Q244.8125,620.1238 245.2344,621.1238 Q245.6719,622.1238 246.6094,622.1238 Q247.5625,622.1238 247.9844,621.1238 Q248.4219,620.1238 248.4219,617.8894 Q248.4219,615.655 247.9844,614.655 Q247.5625,613.655 246.6094,613.655 Z M242.2656,617.8894 Q242.2656,614.7175 243.3594,613.0925 Q244.4688,611.4519 246.6094,611.4519 Q248.7656,611.4519 249.8594,613.0925 Q250.9688,614.7175 250.9688,617.8894 Q250.9688,621.0613 249.8594,622.6863 Q248.7656,624.3113 246.6094,624.3113 Q244.4688,624.3113 243.3594,622.6863 Q242.2656,621.0613 242.2656,617.8894 Z " fill="#000000"/><text fill="#000000" font-family="sans-serif" font-size="14" lengthAdjust="spacing" textLength="95" x="260.5" y="622.9236">ZipToStateFD</text><line style="stroke:#181818;stroke-width:0.5;" x1="232.5" x2="357.5" y1="634.0769" y2="634.0769"/><text fill="#000000" font-family="sans-serif" font-size="14" lengthAdjust="spacing" textLength="80" x="237.5" y="651.072">source=zip</text><text fill="#000000" font-family="sans-serif" font-size="14" lengthAdjust="spacing" textLength="88" x="237.5" y="667.3689">target=state</text></g><!--class AreacodeToStateFD--><g id="elem_AreacodeToStateFD"><rect codeLine="33" fill="#F1F1F1" height="72.5938" id="AreacodeToStateFD" rx="2.5" ry="2.5" style="stroke:#181818;stroke-width:0.5;" width="171" x="209.5" y="751.6669"/><ellipse cx="224.5" cy="767.6669" fill="#DA70D6" rx="11" ry="11" style="stroke:#181818;stroke-width:1.0;"/><path d="M224.6094,763.245 Q223.6719,763.245 223.2344,764.245 Q222.8125,765.245 222.8125,767.4794 Q222.8125,769.7138 223.2344,770.7138 Q223.6719,771.7138 224.6094,771.7138 Q225.5625,771.7138 225.9844,770.7138 Q226.4219,769.7138 226.4219,767.4794 Q226.4219,765.245 225.9844,764.245 Q225.5625,763.245 224.6094,763.245 Z M220.2656,767.4794 Q220.2656,764.3075 221.3594,762.6825 Q222.4688,761.0419 224.6094,761.0419 Q226.7656,761.0419 227.8594,762.6825 Q228.9688,764.3075 228.9688,767.4794 Q228.9688,770.6513 227.8594,772.2763 Q226.7656,773.9013 224.6094,773.9013 Q222.4688,773.9013 221.3594,772.2763 Q220.2656,770.6513 220.2656,767.4794 Z " fill="#000000"/><text fill="#000000" font-family="sans-serif" font-size="14" lengthAdjust="spacing" textLength="139" x="238.5" y="772.5136">AreacodeToStateFD</text><line style="stroke:#181818;stroke-width:0.5;" x1="210.5" x2="379.5" y1="783.6669" y2="783.6669"/><text fill="#000000" font-family="sans-serif" font-size="14" lengthAdjust="spacing" textLength="125" x="215.5" y="800.662">source=areacode</text><text fill="#000000" font-family="sans-serif" font-size="14" lengthAdjust="spacing" textLength="88" x="215.5" y="816.9589">target=state</text></g><!--class ZiptoCityFD--><g id="elem_ZiptoCityFD"><rect codeLine="36" fill="#F1F1F1" height="72.5938" id="ZiptoCityFD" rx="2.5" ry="2.5" style="stroke:#181818;stroke-width:0.5;" width="112" x="98" y="1010.2669"/><ellipse cx="113" cy="1026.2669" fill="#DA70D6" rx="11" ry="11" style="stroke:#181818;stroke-width:1.0;"/><path d="M113.1094,1021.845 Q112.1719,1021.845 111.7344,1022.845 Q111.3125,1023.845 111.3125,1026.0794 Q111.3125,1028.3138 111.7344,1029.3138 Q112.1719,1030.3138 113.1094,1030.3138 Q114.0625,1030.3138 114.4844,1029.3138 Q114.9219,1028.3138 114.9219,1026.0794 Q114.9219,1023.845 114.4844,1022.845 Q114.0625,1021.845 113.1094,1021.845 Z M108.7656,1026.0794 Q108.7656,1022.9075 109.8594,1021.2825 Q110.9688,1019.6419 113.1094,1019.6419 Q115.2656,1019.6419 116.3594,1021.2825 Q117.4688,1022.9075 117.4688,1026.0794 Q117.4688,1029.2513 116.3594,1030.8763 Q115.2656,1032.5013 113.1094,1032.5013 Q110.9688,1032.5013 109.8594,1030.8763 Q108.7656,1029.2513 108.7656,1026.0794 Z " fill="#000000"/><text fill="#000000" font-family="sans-serif" font-size="14" lengthAdjust="spacing" textLength="80" x="127" y="1031.1136">ZiptoCityFD</text><line style="stroke:#181818;stroke-width:0.5;" x1="99" x2="209" y1="1042.2669" y2="1042.2669"/><text fill="#000000" font-family="sans-serif" font-size="14" lengthAdjust="spacing" textLength="80" x="104" y="1059.262">source=zip</text><text fill="#000000" font-family="sans-serif" font-size="14" lengthAdjust="spacing" textLength="76" x="104" y="1075.5589">target=city</text></g><!--class Ziptoattr1--><g id="elem_Ziptoattr1"><rect codeLine="39" fill="#F1F1F1" height="72.5938" id="Ziptoattr1" rx="2.5" ry="2.5" style="stroke:#181818;stroke-width:0.5;" width="100" x="245" y="1010.2669"/><ellipse cx="260" cy="1026.2669" fill="#DA70D6" rx="11" ry="11" style="stroke:#181818;stroke-width:1.0;"/><path d="M260.1094,1021.845 Q259.1719,1021.845 258.7344,1022.845 Q258.3125,1023.845 258.3125,1026.0794 Q258.3125,1028.3138 258.7344,1029.3138 Q259.1719,1030.3138 260.1094,1030.3138 Q261.0625,1030.3138 261.4844,1029.3138 Q261.9219,1028.3138 261.9219,1026.0794 Q261.9219,1023.845 261.4844,1022.845 Q261.0625,1021.845 260.1094,1021.845 Z M255.7656,1026.0794 Q255.7656,1022.9075 256.8594,1021.2825 Q257.9688,1019.6419 260.1094,1019.6419 Q262.2656,1019.6419 263.3594,1021.2825 Q264.4688,1022.9075 264.4688,1026.0794 Q264.4688,1029.2513 263.3594,1030.8763 Q262.2656,1032.5013 260.1094,1032.5013 Q257.9688,1032.5013 256.8594,1030.8763 Q255.7656,1029.2513 255.7656,1026.0794 Z " fill="#000000"/><text fill="#000000" font-family="sans-serif" font-size="14" lengthAdjust="spacing" textLength="68" x="274" y="1031.1136">Ziptoattr1</text><line style="stroke:#181818;stroke-width:0.5;" x1="246" x2="344" y1="1042.2669" y2="1042.2669"/><text fill="#000000" font-family="sans-serif" font-size="14" lengthAdjust="spacing" textLength="80" x="251" y="1059.262">source=zip</text><text fill="#000000" font-family="sans-serif" font-size="14" lengthAdjust="spacing" textLength="85" x="251" y="1075.5589">target=attr1</text></g><!--class NameToGenderFD--><g id="elem_NameToGenderFD"><rect codeLine="42" fill="#F1F1F1" height="72.5938" id="NameToGenderFD" rx="2.5" ry="2.5" style="stroke:#181818;stroke-width:0.5;" width="161" x="380.5" y="1010.2669"/><ellipse cx="395.5" cy="1026.2669" fill="#DA70D6" rx="11" ry="11" style="stroke:#181818;stroke-width:1.0;"/><path d="M395.6094,1021.845 Q394.6719,1021.845 394.2344,1022.845 Q393.8125,1023.845 393.8125,1026.0794 Q393.8125,1028.3138 394.2344,1029.3138 Q394.6719,1030.3138 395.6094,1030.3138 Q396.5625,1030.3138 396.9844,1029.3138 Q397.4219,1028.3138 397.4219,1026.0794 Q397.4219,1023.845 396.9844,1022.845 Q396.5625,1021.845 395.6094,1021.845 Z M391.2656,1026.0794 Q391.2656,1022.9075 392.3594,1021.2825 Q393.4688,1019.6419 395.6094,1019.6419 Q397.7656,1019.6419 398.8594,1021.2825 Q399.9688,1022.9075 399.9688,1026.0794 Q399.9688,1029.2513 398.8594,1030.8763 Q397.7656,1032.5013 395.6094,1032.5013 Q393.4688,1032.5013 392.3594,1030.8763 Q391.2656,1029.2513 391.2656,1026.0794 Z " fill="#000000"/><text fill="#000000" font-family="sans-serif" font-size="14" lengthAdjust="spacing" textLength="129" x="409.5" y="1031.1136">NameToGenderFD</text><line style="stroke:#181818;stroke-width:0.5;" x1="381.5" x2="540.5" y1="1042.2669" y2="1042.2669"/><text fill="#000000" font-family="sans-serif" font-size="14" lengthAdjust="spacing" textLength="145" x="386.5" y="1059.262">source=lnamefname</text><text fill="#000000" font-family="sans-serif" font-size="14" lengthAdjust="spacing" textLength="103" x="386.5" y="1075.5589">target=gender</text></g><!--class attr1toattr2--><g id="elem_attr1toattr2"><rect codeLine="45" fill="#F1F1F1" height="72.5938" id="attr1toattr2" rx="2.5" ry="2.5" style="stroke:#181818;stroke-width:0.5;" width="110" x="240" y="1268.8569"/><ellipse cx="255" cy="1284.8569" fill="#DA70D6" rx="11" ry="11" style="stroke:#181818;stroke-width:1.0;"/><path d="M255.1094,1280.435 Q254.1719,1280.435 253.7344,1281.435 Q253.3125,1282.435 253.3125,1284.6694 Q253.3125,1286.9038 253.7344,1287.9038 Q254.1719,1288.9038 255.1094,1288.9038 Q256.0625,1288.9038 256.4844,1287.9038 Q256.9219,1286.9038 256.9219,1284.6694 Q256.9219,1282.435 256.4844,1281.435 Q256.0625,1280.435 255.1094,1280.435 Z M250.7656,1284.6694 Q250.7656,1281.4975 251.8594,1279.8725 Q252.9688,1278.2319 255.1094,1278.2319 Q257.2656,1278.2319 258.3594,1279.8725 Q259.4688,1281.4975 259.4688,1284.6694 Q259.4688,1287.8413 258.3594,1289.4663 Q257.2656,1291.0913 255.1094,1291.0913 Q252.9688,1291.0913 251.8594,1289.4663 Q250.7656,1287.8413 250.7656,1284.6694 Z " fill="#000000"/><text fill="#000000" font-family="sans-serif" font-size="14" lengthAdjust="spacing" textLength="78" x="269" y="1289.7036">attr1toattr2</text><line style="stroke:#181818;stroke-width:0.5;" x1="241" x2="349" y1="1300.8569" y2="1300.8569"/><text fill="#000000" font-family="sans-serif" font-size="14" lengthAdjust="spacing" textLength="92" x="246" y="1317.852">source=attr1</text><text fill="#000000" font-family="sans-serif" font-size="14" lengthAdjust="spacing" textLength="85" x="246" y="1334.1489">target=attr2</text></g><!--class attr1toattr21--><g id="elem_attr1toattr21"><rect codeLine="48" fill="#F1F1F1" height="72.5938" id="attr1toattr21" rx="2.5" ry="2.5" style="stroke:#181818;stroke-width:0.5;" width="119" x="235.5" y="1418.4569"/><ellipse cx="250.5" cy="1434.4569" fill="#DA70D6" rx="11" ry="11" style="stroke:#181818;stroke-width:1.0;"/><path d="M250.6094,1430.035 Q249.6719,1430.035 249.2344,1431.035 Q248.8125,1432.035 248.8125,1434.2694 Q248.8125,1436.5038 249.2344,1437.5038 Q249.6719,1438.5038 250.6094,1438.5038 Q251.5625,1438.5038 251.9844,1437.5038 Q252.4219,1436.5038 252.4219,1434.2694 Q252.4219,1432.035 251.9844,1431.035 Q251.5625,1430.035 250.6094,1430.035 Z M246.2656,1434.2694 Q246.2656,1431.0975 247.3594,1429.4725 Q248.4688,1427.8319 250.6094,1427.8319 Q252.7656,1427.8319 253.8594,1429.4725 Q254.9688,1431.0975 254.9688,1434.2694 Q254.9688,1437.4413 253.8594,1439.0663 Q252.7656,1440.6913 250.6094,1440.6913 Q248.4688,1440.6913 247.3594,1439.0663 Q246.2656,1437.4413 246.2656,1434.2694 Z " fill="#000000"/><text fill="#000000" font-family="sans-serif" font-size="14" lengthAdjust="spacing" textLength="87" x="264.5" y="1439.3036">attr1toattr21</text><line style="stroke:#181818;stroke-width:0.5;" x1="236.5" x2="353.5" y1="1450.4569" y2="1450.4569"/><text fill="#000000" font-family="sans-serif" font-size="14" lengthAdjust="spacing" textLength="92" x="241.5" y="1467.452">source=attr1</text><text fill="#000000" font-family="sans-serif" font-size="14" lengthAdjust="spacing" textLength="85" x="241.5" y="1483.7489">target=attr2</text></g><!--class genderPattern--><g id="elem_genderPattern"><rect codeLine="51" fill="#F1F1F1" height="72.5938" id="genderPattern" rx="2.5" ry="2.5" style="stroke:#181818;stroke-width:0.5;" width="132" x="7" y="44.2969"/><ellipse cx="22" cy="60.2969" fill="#DA70D6" rx="11" ry="11" style="stroke:#181818;stroke-width:1.0;"/><path d="M22.1094,55.875 Q21.1719,55.875 20.7344,56.875 Q20.3125,57.875 20.3125,60.1094 Q20.3125,62.3438 20.7344,63.3438 Q21.1719,64.3438 22.1094,64.3438 Q23.0625,64.3438 23.4844,63.3438 Q23.9219,62.3438 23.9219,60.1094 Q23.9219,57.875 23.4844,56.875 Q23.0625,55.875 22.1094,55.875 Z M17.7656,60.1094 Q17.7656,56.9375 18.8594,55.3125 Q19.9688,53.6719 22.1094,53.6719 Q24.2656,53.6719 25.3594,55.3125 Q26.4688,56.9375 26.4688,60.1094 Q26.4688,63.2813 25.3594,64.9063 Q24.2656,66.5313 22.1094,66.5313 Q19.9688,66.5313 18.8594,64.9063 Q17.7656,63.2813 17.7656,60.1094 Z " fill="#000000"/><text fill="#000000" font-family="sans-serif" font-size="14" lengthAdjust="spacing" textLength="100" x="36" y="65.1436">genderPattern</text><line style="stroke:#181818;stroke-width:0.5;" x1="8" x2="138" y1="76.2969" y2="76.2969"/><text fill="#000000" font-family="sans-serif" font-size="14" lengthAdjust="spacing" textLength="50" x="13" y="93.292">gender</text><text fill="#000000" font-family="sans-serif" font-size="14" lengthAdjust="spacing" textLength="35" x="13" y="109.5889">[M|F]</text></g><!--class areacodePattern--><g id="elem_areacodePattern"><rect codeLine="55" fill="#F1F1F1" height="72.5938" id="areacodePattern" rx="2.5" ry="2.5" style="stroke:#181818;stroke-width:0.5;" width="147" x="221.5" y="44.2969"/><ellipse cx="236.5" cy="60.2969" fill="#DA70D6" rx="11" ry="11" style="stroke:#181818;stroke-width:1.0;"/><path d="M236.6094,55.875 Q235.6719,55.875 235.2344,56.875 Q234.8125,57.875 234.8125,60.1094 Q234.8125,62.3438 235.2344,63.3438 Q235.6719,64.3438 236.6094,64.3438 Q237.5625,64.3438 237.9844,63.3438 Q238.4219,62.3438 238.4219,60.1094 Q238.4219,57.875 237.9844,56.875 Q237.5625,55.875 236.6094,55.875 Z M232.2656,60.1094 Q232.2656,56.9375 233.3594,55.3125 Q234.4688,53.6719 236.6094,53.6719 Q238.7656,53.6719 239.8594,55.3125 Q240.9688,56.9375 240.9688,60.1094 Q240.9688,63.2813 239.8594,64.9063 Q238.7656,66.5313 236.6094,66.5313 Q234.4688,66.5313 233.3594,64.9063 Q232.2656,63.2813 232.2656,60.1094 Z " fill="#000000"/><text fill="#000000" font-family="sans-serif" font-size="14" lengthAdjust="spacing" textLength="115" x="250.5" y="65.1436">areacodePattern</text><line style="stroke:#181818;stroke-width:0.5;" x1="222.5" x2="367.5" y1="76.2969" y2="76.2969"/><text fill="#000000" font-family="sans-serif" font-size="14" lengthAdjust="spacing" textLength="65" x="227.5" y="93.292">areacode</text><text fill="#000000" font-family="sans-serif" font-size="14" lengthAdjust="spacing" textLength="60" x="227.5" y="109.5889">[0-9]{3}</text></g><!--class statePattern--><g id="elem_statePattern"><rect codeLine="60" fill="#F1F1F1" height="72.5938" id="statePattern" rx="2.5" ry="2.5" style="stroke:#181818;stroke-width:0.5;" width="117" x="451.5" y="44.2969"/><ellipse cx="466.5" cy="60.2969" fill="#DA70D6" rx="11" ry="11" style="stroke:#181818;stroke-width:1.0;"/><path d="M466.6094,55.875 Q465.6719,55.875 465.2344,56.875 Q464.8125,57.875 464.8125,60.1094 Q464.8125,62.3438 465.2344,63.3438 Q465.6719,64.3438 466.6094,64.3438 Q467.5625,64.3438 467.9844,63.3438 Q468.4219,62.3438 468.4219,60.1094 Q468.4219,57.875 467.9844,56.875 Q467.5625,55.875 466.6094,55.875 Z M462.2656,60.1094 Q462.2656,56.9375 463.3594,55.3125 Q464.4688,53.6719 466.6094,53.6719 Q468.7656,53.6719 469.8594,55.3125 Q470.9688,56.9375 470.9688,60.1094 Q470.9688,63.2813 469.8594,64.9063 Q468.7656,66.5313 466.6094,66.5313 Q464.4688,66.5313 463.3594,64.9063 Q462.2656,63.2813 462.2656,60.1094 Z " fill="#000000"/><text fill="#000000" font-family="sans-serif" font-size="14" lengthAdjust="spacing" textLength="85" x="480.5" y="65.1436">statePattern</text><line style="stroke:#181818;stroke-width:0.5;" x1="452.5" x2="567.5" y1="76.2969" y2="76.2969"/><text fill="#000000" font-family="sans-serif" font-size="14" lengthAdjust="spacing" textLength="35" x="457.5" y="93.292">state</text><text fill="#000000" font-family="sans-serif" font-size="14" lengthAdjust="spacing" textLength="61" x="457.5" y="109.5889">[A-Z]{2}</text></g><!--link genderPattern to SINGLE_END--><g id="link_genderPattern_SINGLE_END"><path codeLine="54" d="M135.13,117.2269 C178.88,142.3069 230.0548,171.6525 262.8448,190.4525 " fill="none" id="genderPattern-to-SINGLE_END" style="stroke:#181818;stroke-width:1.0;"/><polygon fill="#181818" points="268.05,193.4369,262.2318,185.4902,263.7124,190.9499,258.2527,192.4304,268.05,193.4369" style="stroke:#181818;stroke-width:1.0;"/><text fill="#000000" font-family="sans-serif" font-size="13" lengthAdjust="spacing" textLength="28" x="212" y="159.9538">next</text></g><!--link genderPattern to areacodePattern--><g id="link_genderPattern_areacodePattern"><path codeLine="58" d="M145.31,80.5969 C171.12,80.5969 188.79,80.5969 215.27,80.5969 " fill="none" id="genderPattern-areacodePattern" style="stroke:#181818;stroke-width:1.0;"/><polygon fill="#181818" points="139.31,80.5969,148.31,84.5969,144.31,80.5969,148.31,76.5969,139.31,80.5969" style="stroke:#181818;stroke-width:1.0;"/><polygon fill="#181818" points="221.27,80.5969,212.27,76.5969,216.27,80.5969,212.27,84.5969,221.27,80.5969" style="stroke:#181818;stroke-width:1.0;"/><text fill="#000000" font-family="sans-serif" font-size="13" lengthAdjust="spacing" textLength="46" x="157.25" y="73.6638">parallel</text></g><!--link areacodePattern to SINGLE_END--><g id="link_areacodePattern_SINGLE_END"><path codeLine="59" d="M295,117.0569 C295,142.2169 295,168.7369 295,187.5569 " fill="none" id="areacodePattern-to-SINGLE_END" style="stroke:#181818;stroke-width:1.0;"/><polygon fill="#181818" points="295,193.5569,299,184.5569,295,188.5569,291,184.5569,295,193.5569" style="stroke:#181818;stroke-width:1.0;"/><text fill="#000000" font-family="sans-serif" font-size="13" lengthAdjust="spacing" textLength="28" x="296" y="159.9538">next</text></g><!--link areacodePattern to statePattern--><g id="link_areacodePattern_statePattern"><path codeLine="63" d="M374.99,80.5969 C401.84,80.5969 419.78,80.5969 445.14,80.5969 " fill="none" id="areacodePattern-statePattern" style="stroke:#181818;stroke-width:1.0;"/><polygon fill="#181818" points="368.99,80.5969,377.99,84.5969,373.99,80.5969,377.99,76.5969,368.99,80.5969" style="stroke:#181818;stroke-width:1.0;"/><polygon fill="#181818" points="451.14,80.5969,442.14,76.5969,446.14,80.5969,442.14,84.5969,451.14,80.5969" style="stroke:#181818;stroke-width:1.0;"/><text fill="#000000" font-family="sans-serif" font-size="13" lengthAdjust="spacing" textLength="46" x="387" y="73.6638">parallel</text></g><!--link statePattern to SINGLE_END--><g id="link_statePattern_SINGLE_END"><path codeLine="64" d="M451.25,116.3769 C408.73,141.5569 358.4627,171.3197 326.3427,190.3397 " fill="none" id="statePattern-to-SINGLE_END" style="stroke:#181818;stroke-width:1.0;"/><polygon fill="#181818" points="321.18,193.3969,330.9622,192.253,325.4823,190.8493,326.886,185.3693,321.18,193.3969" style="stroke:#181818;stroke-width:1.0;"/><text fill="#000000" font-family="sans-serif" font-size="13" lengthAdjust="spacing" textLength="28" x="397" y="159.9538">next</text></g><!--link SINGLE_END to ZipToAreacodeFD--><g id="link_SINGLE_END_ZipToAreacodeFD"><path codeLine="65" d="M295,225.9969 C295,244.7669 295,271.3969 295,296.6469 " fill="none" id="SINGLE_END-to-ZipToAreacodeFD" style="stroke:#181818;stroke-width:1.0;"/><polygon fill="#181818" points="295,302.6469,299,293.6469,295,297.6469,291,293.6469,295,302.6469" style="stroke:#181818;stroke-width:1.0;"/><text fill="#000000" font-family="sans-serif" font-size="13" lengthAdjust="spacing" textLength="28" x="296" y="268.9538">next</text></g><!--link ZipToAreacodeFD to StateToZipFD--><g id="link_ZipToAreacodeFD_StateToZipFD"><path codeLine="66" d="M295,375.9169 C295,399.0369 295,423.0169 295,446.1269 " fill="none" id="ZipToAreacodeFD-to-StateToZipFD" style="stroke:#181818;stroke-width:1.0;"/><polygon fill="#181818" points="295,452.1269,299,443.1269,295,447.1269,291,443.1269,295,452.1269" style="stroke:#181818;stroke-width:1.0;"/><text fill="#000000" font-family="sans-serif" font-size="13" lengthAdjust="spacing" textLength="28" x="296" y="418.5538">next</text></g><!--link StateToZipFD to ZipToStateFD--><g id="link_StateToZipFD_ZipToStateFD"><path codeLine="67" d="M295,525.5069 C295,548.6269 295,572.6169 295,595.7169 " fill="none" id="StateToZipFD-to-ZipToStateFD" style="stroke:#181818;stroke-width:1.0;"/><polygon fill="#181818" points="295,601.7169,299,592.7169,295,596.7169,291,592.7169,295,601.7169" style="stroke:#181818;stroke-width:1.0;"/><text fill="#000000" font-family="sans-serif" font-size="13" lengthAdjust="spacing" textLength="28" x="296" y="568.1438">next</text></g><!--link ZipToStateFD to AreacodeToStateFD--><g id="link_ZipToStateFD_AreacodeToStateFD"><path codeLine="68" d="M295,675.1069 C295,698.2269 295,722.2069 295,745.3169 " fill="none" id="ZipToStateFD-to-AreacodeToStateFD" style="stroke:#181818;stroke-width:1.0;"/><polygon fill="#181818" points="295,751.3169,299,742.3169,295,746.3169,291,742.3169,295,751.3169" style="stroke:#181818;stroke-width:1.0;"/><text fill="#000000" font-family="sans-serif" font-size="13" lengthAdjust="spacing" textLength="28" x="296" y="717.7338">next</text></g><!--link AreacodeToStateFD to level_1_end--><g id="link_AreacodeToStateFD_level_1_end"><path codeLine="69" d="M295,824.4269 C295,849.5869 295,876.1169 295,894.9369 " fill="none" id="AreacodeToStateFD-to-level_1_end" style="stroke:#181818;stroke-width:1.0;"/><polygon fill="#181818" points="295,900.9369,299,891.9369,295,895.9369,291,891.9369,295,900.9369" style="stroke:#181818;stroke-width:1.0;"/><text fill="#000000" font-family="sans-serif" font-size="13" lengthAdjust="spacing" textLength="28" x="296" y="867.3338">next</text></g><!--link level_1_end to ZiptoCityFD--><g id="link_level_1_end_ZiptoCityFD"><path codeLine="70" d="M277.99,933.6169 C257.19,952.3969 225.774,980.7666 197.944,1005.8866 " fill="none" id="level_1_end-to-ZiptoCityFD" style="stroke:#181818;stroke-width:1.0;"/><polygon fill="#181818" points="193.49,1009.9069,202.8511,1006.8458,197.2016,1006.5567,197.4908,1000.9072,193.49,1009.9069" style="stroke:#181818;stroke-width:1.0;"/><text fill="#000000" font-family="sans-serif" font-size="13" lengthAdjust="spacing" textLength="28" x="243" y="976.3338">next</text></g><!--link ZiptoCityFD to level_2_end--><g id="link_ZiptoCityFD_level_2_end"><path codeLine="71" d="M193.28,1083.0169 C221.14,1108.1769 252.7161,1136.6866 273.5661,1155.5066 " fill="none" id="ZiptoCityFD-to-level_2_end" style="stroke:#181818;stroke-width:1.0;"/><polygon fill="#181818" points="278.02,1159.5269,274.0193,1150.5272,274.3084,1156.1766,268.6589,1156.4657,278.02,1159.5269" style="stroke:#181818;stroke-width:1.0;"/><text fill="#000000" font-family="sans-serif" font-size="13" lengthAdjust="spacing" textLength="28" x="243" y="1125.9238">next</text></g><!--link level_1_end to Ziptoattr1--><g id="link_level_1_end_Ziptoattr1"><path codeLine="72" d="M295,933.3669 C295,952.1369 295,978.7769 295,1004.0269 " fill="none" id="level_1_end-to-Ziptoattr1" style="stroke:#181818;stroke-width:1.0;"/><polygon fill="#181818" points="295,1010.0269,299,1001.0269,295,1005.0269,291,1001.0269,295,1010.0269" style="stroke:#181818;stroke-width:1.0;"/><text fill="#000000" font-family="sans-serif" font-size="13" lengthAdjust="spacing" textLength="28" x="296" y="976.3338">next</text></g><!--link Ziptoattr1 to level_2_end--><g id="link_Ziptoattr1_level_2_end"><path codeLine="73" d="M295,1083.0169 C295,1108.1769 295,1134.7069 295,1153.5269 " fill="none" id="Ziptoattr1-to-level_2_end" style="stroke:#181818;stroke-width:1.0;"/><polygon fill="#181818" points="295,1159.5269,299,1150.5269,295,1154.5269,291,1150.5269,295,1159.5269" style="stroke:#181818;stroke-width:1.0;"/><text fill="#000000" font-family="sans-serif" font-size="13" lengthAdjust="spacing" textLength="28" x="296" y="1125.9238">next</text></g><!--link level_1_end to NameToGenderFD--><g id="link_level_1_end_NameToGenderFD"><path codeLine="74" d="M315.02,933.6169 C339.51,952.3969 376.9886,981.1359 409.7486,1006.2559 " fill="none" id="level_1_end-to-NameToGenderFD" style="stroke:#181818;stroke-width:1.0;"/><polygon fill="#181818" points="414.51,1009.9069,409.8019,1001.2562,410.5422,1006.8644,404.934,1007.6047,414.51,1009.9069" style="stroke:#181818;stroke-width:1.0;"/><text fill="#000000" font-family="sans-serif" font-size="13" lengthAdjust="spacing" textLength="28" x="374" y="976.3338">next</text></g><!--link NameToGenderFD to level_2_end--><g id="link_NameToGenderFD_level_2_end"><path codeLine="75" d="M414.76,1083.0169 C381.95,1108.1769 344.3018,1137.0565 319.7518,1155.8765 " fill="none" id="NameToGenderFD-to-level_2_end" style="stroke:#181818;stroke-width:1.0;"/><polygon fill="#181818" points="314.99,1159.5269,324.5663,1157.2258,318.9582,1156.4849,319.6991,1150.8768,314.99,1159.5269" style="stroke:#181818;stroke-width:1.0;"/><text fill="#000000" font-family="sans-serif" font-size="13" lengthAdjust="spacing" textLength="28" x="374" y="1125.9238">next</text></g><!--link level_2_end to attr1toattr2--><g id="link_level_2_end_attr1toattr2"><path codeLine="76" d="M295,1191.9569 C295,1210.7269 295,1237.3669 295,1262.6169 " fill="none" id="level_2_end-to-attr1toattr2" style="stroke:#181818;stroke-width:1.0;"/><polygon fill="#181818" points="295,1268.6169,299,1259.6169,295,1263.6169,291,1259.6169,295,1268.6169" style="stroke:#181818;stroke-width:1.0;"/><text fill="#000000" font-family="sans-serif" font-size="13" lengthAdjust="spacing" textLength="28" x="296" y="1234.9238">next</text></g><!--link attr1toattr2 to attr1toattr21--><g id="link_attr1toattr2_attr1toattr21"><path codeLine="77" d="M295,1341.8869 C295,1365.0069 295,1388.9869 295,1412.0969 " fill="none" id="attr1toattr2-to-attr1toattr21" style="stroke:#181818;stroke-width:1.0;"/><polygon fill="#181818" points="295,1418.0969,299,1409.0969,295,1413.0969,291,1409.0969,295,1418.0969" style="stroke:#181818;stroke-width:1.0;"/><text fill="#000000" font-family="sans-serif" font-size="13" lengthAdjust="spacing" textLength="28" x="296" y="1384.5238">next</text></g><!--link attr1toattr21 to level_3_end--><g id="link_attr1toattr21_level_3_end"><path codeLine="78" d="M295,1491.2069 C295,1516.3669 295,1542.8969 295,1561.7169 " fill="none" id="attr1toattr21-to-level_3_end" style="stroke:#181818;stroke-width:1.0;"/><polygon fill="#181818" points="295,1567.7169,299,1558.7169,295,1562.7169,291,1558.7169,295,1567.7169" style="stroke:#181818;stroke-width:1.0;"/><text fill="#000000" font-family="sans-serif" font-size="13" lengthAdjust="spacing" textLength="28" x="296" y="1534.1138">next</text></g><!--SRC=[bPJFYzD05CVl-Il6arimODAJqYsqjRi8Qokwfosb3Cbh6tQIAPEfsxKM5lGYuX-WPy7RWZT5zA-nLFyB9vDVCvDqNNieVT_ttkTz9vsyEpvCWmZGC_3uS04CSyeELWta4Hp7Q8LQBNGml8Sey-Q1tq3jjcN5vq6qm0o7Y8ac7Cq8eBM5nAUBlVCPeyl8xr52MQirRBVHIJ2RyovPGbf2cGzCfb6NY7gfTXYZ5wguiImUS07kKSnYi6SC2vS-wX704J3KNu6tv06Dq33X9VPf64BauqIqhBkxpz__VFZqwzkxxTltkuzljbzVRxzS_Rx-kVjnROcJ089mmI-H3x77WeLiKkGG-9pwiIfD0o12iRG7zVpnuFYaF-aF7ZMC384NG2REH5YgJxdxKyswr5cmEAKT1jYZFXo9UOQ07gAOBfa7Xo-3HKsIOpO3VeWppJW7nnnEgUXAo6fKOkD4DNCPDHbPTIjh2wjPLEEpp6IuT9G6pC-YK2jIYIvEMLUpVuXmmsalu9UPwJoeU5OI6SqJSGqCSywSZ2L_rw1oFV-7ab173N0eJd0iRWMmn9eUbqWIYSGq-QgMPFIPL7Iyd9ZwS1kM6YbFLBeoSefZTp_IqPdEJL3dHcfg_gd808iQbXQAnknifZnwykfeRAYsJoyYkutA5rWKHh3YnZ6owrECD0JHL5orQcfqttumNZStnkoMpPALAAPNMvAzIWYG2ksMXkMbBjogKVBKvOqtn577FXkltKrbOcdJw2WyQlf-WugI5rNNawmqvOAfBvsKgceQjtpJIsYkvOLrUq5MLnDvYxBHys9LKYmeso5tK4WwpRqLBLyG9InL_fDLMGcoqb3_oNGrfh4GP9scrHKwTPNcSPhAwBy0]--></g></svg>